<?xml version="1.0" encoding="utf-8"?>
<!-- Generator: Adobe Illustrator 26.2.1, SVG Export Plug-In . SVG Version: 6.00 Build 0)  -->
<svg version="1.1" id="Calque_1" xmlns="http://www.w3.org/2000/svg" xmlns:xlink="http://www.w3.org/1999/xlink" x="0px" y="0px"
	 viewBox="0 0 640 384" style="enable-background:new 0 0 640 384;" xml:space="preserve">
<style type="text/css">
	.st0{fill:#282E42;}
</style>
<path class="st0" d="M448,100c11,0,20,8.1,20,20v4h60c11,0,20,8.1,20,20c0,11-9,20-20,20h-2l-1.6,4.5c-8.9,23.6-22.5,46.6-39.7,65.4
	c0.9,0.5,1.8,0.2,2.7,1.6l18.9,11.3c9.5,5.7,12.5,18,6.8,27.5c-5.6,9.5-17.9,12.5-27.4,6.8l-18.9-11.3c-4.4-2.7-9.7-5.5-13.1-8.5
	c-10.5,7.5-21.9,14-33.9,19.4l-3.7,1.6c-10.1,4.5-21.9-0.1-26.4-10.2s0.1-21.9,10.2-26.4l3.6-1.6c6.4-2.9,12.6-7,18.5-9.8
	l-12.1-12.2c-7.9-7.8-7.9-20.4,0-28.2c7.8-7.9,20.4-7.9,28.2,0l14.6,14.5l0.6-0.3c12.4-12.2,22.5-27.4,29.8-45H376
	c-11.9,0-20-8.1-20-20c0-11,8.1-20,20-20h52v-4c0-11,8.1-20,20-20V100z M160,169.2l19,42.8h-38.9L160,169.2z M0,64
	C0,28.7,28.6,0,64,0h512c35.3,0,64,28.7,64,64v256c0,35.3-28.7,64-64,64H64c-35.3,0-64-28.7-64-64V64z M320,320h256V64H320V320z
	 M178.3,111.9c-3.2-7.2-10.4-11.9-18.3-11.9s-15.1,4.7-18.3,11.9l-64,144c-4.5,9.2,0.1,21.9,10.2,26.4c10.1,4.5,21.9-0.1,26.4-10.2
	l8.9-21h73.6l8.9,21c4.5,10.1,16.3,14.7,26.4,10.2c10.1-4.5,14.7-17.2,10.2-26.4L178.3,111.9z"/>
</svg>
