<svg id="bd82bd5a-0d7f-457f-bebe-913b75dee63c" data-name="Calque 1" xmlns="http://www.w3.org/2000/svg" viewBox="0 0 20.46 20.46"><g id="b0225ffb-f6a0-4ba1-a82c-12482401f10a" data-name="Groupe 64"><g id="bea2a439-04cb-49b0-b28b-98dee7191c06" data-name="Tracé 2557"><path d="M3.27.77,19.63,17.13a1.75,1.75,0,0,1-1.23,3L2,20.21A1.76,1.76,0,0,1,.19,18.45L.28,2A1.71,1.71,0,0,1,1.36.39,1.72,1.72,0,0,1,3.27.77Z" transform="translate(0.06)" style="fill:#fff"/><path d="M.88,19.52A1.54,1.54,0,0,0,2,20l16.45-.09a1.5,1.5,0,0,0,1.05-2.56L3.09.94A1.46,1.46,0,0,0,1.46.62,1.46,1.46,0,0,0,.53,2L.44,18.45a1.5,1.5,0,0,0,.44,1.07m-.35.35a2,2,0,0,1-.59-1.43L0,2A2,2,0,0,1,3.44.59L19.81,17a2,2,0,0,1-1.41,3.42L2,20.46A2,2,0,0,1,.53,19.87Z" transform="translate(0.06)" style="fill:#282e42"/></g><path id="b0a26c20-4eb0-486b-a4f3-7bcc37b1d307" data-name="Tracé 2558" d="M7.77,12.19h2.46v1.39H7.77V16H6.38V13.58H3.92V12.19H6.38V9.72H7.77Z" transform="translate(0.06)" style="fill:#282e42"/></g></svg>