<?xml version="1.0" encoding="utf-8"?>
<!-- Generator: Adobe Illustrator 26.0.3, SVG Export Plug-In . SVG Version: 6.00 Build 0)  -->
<svg version="1.1" id="Calque_1" xmlns="http://www.w3.org/2000/svg" xmlns:xlink="http://www.w3.org/1999/xlink" x="0px" y="0px"
	 viewBox="0 0 69 69.1" style="enable-background:new 0 0 69 69.1;" xml:space="preserve">
<style type="text/css">
	.st0{fill:#E94765;stroke:#E94765;stroke-miterlimit:10;}
	.st1{fill:#FFFFFF;}
</style>
<g>
	<path class="st0" d="M68.5,34.5c0,9.4-3.8,17.9-10,24.1c-6.2,6.2-14.7,10-24.1,10c-18.8,0-34-15.2-34-34c0-9.4,3.8-17.9,10-24.1
		s14.7-10,24.1-10c9.4,0,17.9,3.8,24.1,10C64.7,16.6,68.5,25.1,68.5,34.5z"/>
	<g>
		<g>
			<g>
				<g>
					<path class="st1" d="M15.5,15.6v6.1h3.3v-2.8h6.4v-3.3H15.5z"/>
				</g>
				<g>
					<path class="st1" d="M43.9,15.6v3.3h6.4v2.8h3.3v-6.1H43.9z"/>
				</g>
				<g>
					<path class="st1" d="M25.2,53.5v-3.3h-6.4v-2.8h-3.3v6.1H25.2z"/>
				</g>
				<g>
					<path class="st1" d="M53.6,53.5v-6.1h-3.3v2.8h-6.4v3.3H53.6z"/>
				</g>
			</g>
		</g>
		<path class="st1" d="M34.5,45.6c-6.5,0-10.7-4.5-10.7-11c0-6.8,4.2-11.2,10.7-11.2c6.5,0,10.8,4.3,10.8,11.2
			C45.3,41.1,41,45.6,34.5,45.6z M34.5,42.1c3.8,0,6-2.8,6-7.5s-2.1-7.6-6-7.6s-6,2.9-6,7.6C28.6,39.2,30.7,42.1,34.5,42.1z"/>
	</g>
</g>
</svg>
