<?xml version="1.0" encoding="utf-8"?>
<!-- Generator: Adobe Illustrator 25.4.1, SVG Export Plug-In . SVG Version: 6.00 Build 0)  -->
<svg version="1.1" id="Calque_1" xmlns="http://www.w3.org/2000/svg" xmlns:xlink="http://www.w3.org/1999/xlink" x="0px" y="0px"
	 viewBox="0 0 16 16" style="enable-background:new 0 0 16 16;" xml:space="preserve">
<style type="text/css">
	.st0{fill:#FFFFFF;}
</style>
<path class="st0" d="M2.5,1c-0.6,0-1,0.4-1,1v1c0,0.6,0.4,1,1,1H3v9c0,1.1,0.9,2,2,2h6c1.1,0,2-0.9,2-2V4h0.5c0.6,0,1-0.4,1-1V2
	c0-0.6-0.4-1-1-1H10c0-0.6-0.4-1-1-1H7C6.4,0,6,0.4,6,1H2.5z M5.5,5C5.8,5,6,5.2,6,5.5v7C6,12.8,5.8,13,5.5,13S5,12.8,5,12.5v-7
	C5,5.2,5.2,5,5.5,5z M8,5c0.3,0,0.5,0.2,0.5,0.5v7C8.5,12.8,8.3,13,8,13c-0.3,0-0.5-0.2-0.5-0.5v-7C7.5,5.2,7.7,5,8,5z M11,5.5v7
	c0,0.3-0.2,0.5-0.5,0.5S10,12.8,10,12.5v-7C10,5.2,10.2,5,10.5,5S11,5.2,11,5.5z"/>
</svg>
