<?xml version="1.0" encoding="utf-8"?>
<!-- Generator: Adobe Illustrator 26.0.3, SVG Export Plug-In . SVG Version: 6.00 Build 0)  -->
<svg version="1.1" id="Calque_1" xmlns="http://www.w3.org/2000/svg" xmlns:xlink="http://www.w3.org/1999/xlink" x="0px" y="0px"
	 viewBox="0 0 29.4 28.5" style="enable-background:new 0 0 29.4 28.5;" xml:space="preserve">
<style type="text/css">
	.st0{fill:#FFFFFF;stroke:#282E42;stroke-width:0.75;stroke-miterlimit:10;}
	.st1{fill:#282E42;}
</style>
<g>
	<path class="st0" d="M22.6,27.4H8.8c-1.2,0-2.2-1-2.2-2.2V5.9c0-1.2,1-2.2,2.2-2.2h13.7c1.2,0,2.2,1,2.2,2.2v19.3
		C24.8,26.4,23.8,27.4,22.6,27.4z"/>
	<line class="st0" x1="9.5" y1="7.7" x2="22" y2="7.7"/>
	<g>
		<line class="st0" x1="9.5" y1="23.4" x2="22" y2="23.4"/>
		<line class="st0" x1="9.5" y1="21.1" x2="22" y2="21.1"/>
		<line class="st0" x1="9.5" y1="18.9" x2="22" y2="18.9"/>
		<line class="st0" x1="9.5" y1="16.6" x2="22" y2="16.6"/>
		<line class="st0" x1="9.5" y1="14.4" x2="22" y2="14.4"/>
		<line class="st0" x1="9.5" y1="12.2" x2="22" y2="12.2"/>
		<line class="st0" x1="9.5" y1="9.9" x2="22" y2="9.9"/>
		<circle class="st0" cx="24.4" cy="23.5" r="4.6"/>
		<polyline class="st0" points="22.1,23.6 23.5,25.8 26.7,21.2 		"/>
		<g>
			<path class="st0" d="M7.1,0.4L0.4,12c-0.1,0.1,0,0.2,0.1,0.2h13.3c0.1,0,0.2-0.1,0.1-0.2L7.3,0.4C7.2,0.4,7.1,0.4,7.1,0.4z"/>
			<g>
				<path class="st1" d="M7.2,9.2c0.2,0,0.3,0.1,0.4,0.2c0.1,0.1,0.2,0.2,0.2,0.4c0,0.2-0.1,0.3-0.2,0.4c-0.1,0.1-0.3,0.2-0.4,0.2
					c-0.2,0-0.3-0.1-0.4-0.2C6.6,10.1,6.6,10,6.6,9.8s0.1-0.3,0.2-0.4C6.8,9.3,7,9.2,7.2,9.2z M7.6,8.6H6.7L6.6,4.9h1.2L7.6,8.6z"/>
			</g>
		</g>
	</g>
</g>
</svg>
