<?xml version="1.0" encoding="utf-8"?>
<!-- Generator: Adobe Illustrator 26.0.3, SVG Export Plug-In . SVG Version: 6.00 Build 0)  -->
<svg version="1.1" id="Calque_1" xmlns="http://www.w3.org/2000/svg" xmlns:xlink="http://www.w3.org/1999/xlink" x="0px" y="0px"
	 viewBox="0 0 280.3 97.1" style="enable-background:new 0 0 280.3 97.1;" xml:space="preserve">
<style type="text/css">
	.st0{fill:#FFFFFF;stroke:#282E42;stroke-miterlimit:10;}
	.st1{fill:#282E42;}
	.st2{fill:none;stroke:#282E42;stroke-miterlimit:10;}
</style>
<g>
	<path class="st0" d="M65.3,80.5h-56v-30c0-2,1.6-3.5,3.5-3.5h48.9c2,0,3.5,1.6,3.5,3.5V80.5z"/>
	<path class="st0" d="M9.3,80.5L1,92.3c-1.1,1.6-0.3,4.3,1.2,4.3h70.1c1.6,0,2.4-2.7,1.2-4.3l-8.3-11.8"/>
	<path class="st0" d="M43.8,90.1l1.9,2.7c0.3,0.4,0.1,1-0.3,1H29.2c-0.4,0-0.5-0.6-0.3-1l1.9-2.7H43.8z"/>
	<path class="st0" d="M62.1,78.5H12.5V52c0-1.7,1.4-3.1,3.1-3.1h43.3c1.7,0,3.1,1.4,3.1,3.1V78.5z"/>
</g>
<g>
	<path class="st1" d="M38.6,70.8H36l-0.6,1.6h-0.8l2.3-6h0.7l2.3,6h-0.8L38.6,70.8z M36.3,70.1h2.1l-1-2.8L36.3,70.1z"/>
</g>
<circle class="st2" cx="37.3" cy="69.9" r="6.1"/>
<g>
	<path class="st1" d="M30.1,57.2c-1-0.3-1.7-0.6-2.1-1s-0.7-0.9-0.7-1.5c0-0.7,0.3-1.2,0.8-1.7s1.2-0.7,2.1-0.7
		c0.6,0,1.1,0.1,1.6,0.3s0.8,0.5,1.1,0.9s0.4,0.8,0.4,1.3h-1.1c0-0.5-0.2-0.9-0.5-1.2s-0.8-0.4-1.4-0.4c-0.6,0-1,0.1-1.3,0.4
		c-0.3,0.2-0.5,0.6-0.5,1c0,0.3,0.1,0.6,0.4,0.9s0.8,0.5,1.5,0.7c0.7,0.2,1.3,0.4,1.7,0.7s0.7,0.5,0.9,0.8s0.3,0.7,0.3,1.1
		c0,0.7-0.3,1.2-0.8,1.7s-1.3,0.6-2.2,0.6c-0.6,0-1.1-0.1-1.6-0.3s-0.9-0.5-1.2-0.9s-0.4-0.8-0.4-1.3h1.1c0,0.5,0.2,0.9,0.6,1.2
		s0.9,0.4,1.5,0.4c0.6,0,1-0.1,1.4-0.4s0.5-0.6,0.5-1s-0.1-0.7-0.4-1S30.9,57.4,30.1,57.2z"/>
	<path class="st1" d="M34.5,53c0-0.2,0.1-0.3,0.2-0.4s0.3-0.2,0.5-0.2s0.4,0.1,0.5,0.2s0.2,0.3,0.2,0.4s-0.1,0.3-0.2,0.4
		s-0.3,0.2-0.5,0.2s-0.4-0.1-0.5-0.2S34.5,53.1,34.5,53z M35.7,61h-1.1v-6.3h1.1V61z"/>
	<path class="st1" d="M38.9,53.1v1.5h1.2v0.8h-1.2v3.9c0,0.3,0.1,0.4,0.2,0.6c0.1,0.1,0.3,0.2,0.5,0.2c0.1,0,0.3,0,0.5-0.1V61
		c-0.3,0.1-0.6,0.1-0.8,0.1c-0.5,0-0.8-0.1-1.1-0.4s-0.4-0.7-0.4-1.2v-3.9h-1.2v-0.8h1.2v-1.5H38.9z"/>
	<path class="st1" d="M44,61.1c-0.9,0-1.6-0.3-2.1-0.8s-0.8-1.3-0.8-2.3v-0.2c0-0.6,0.1-1.2,0.4-1.7s0.6-0.9,1-1.2s0.9-0.4,1.4-0.4
		c0.8,0,1.5,0.3,1.9,0.8s0.7,1.3,0.7,2.3v0.5h-4.3c0,0.6,0.2,1.1,0.5,1.5s0.8,0.6,1.3,0.6c0.4,0,0.7-0.1,1-0.2s0.5-0.4,0.7-0.6
		l0.7,0.5C45.9,60.7,45.1,61.1,44,61.1z M43.9,55.4c-0.4,0-0.8,0.2-1.1,0.5s-0.5,0.8-0.6,1.3h3.2v-0.1c0-0.6-0.2-1-0.4-1.3
		S44.3,55.4,43.9,55.4z"/>
</g>
<g>
	<g>
		<line class="st2" x1="83.4" y1="67.3" x2="116.2" y2="67.3"/>
		<g>
			<polygon class="st1" points="114.2,69 115.9,67.3 114.2,65.6 115.6,65.6 117.3,67.3 115.6,69 			"/>
		</g>
	</g>
</g>
<g>
	<g>
		<line class="st2" x1="186.7" y1="67.3" x2="219.5" y2="67.3"/>
		<g>
			<polygon class="st1" points="217.5,69 219.2,67.3 217.5,65.6 218.9,65.6 220.6,67.3 218.9,69 			"/>
		</g>
	</g>
</g>
<g>
	<polygon class="st0" points="169.2,38.3 169.2,87.3 154,96.3 130.7,96.3 130.7,47.2 145.9,38.3 	"/>
	<path class="st0" d="M130.7,47.2"/>
	<polyline class="st0" points="130.7,47.2 154,47.2 169.2,38.3 	"/>
	<line class="st0" x1="154" y1="47.2" x2="154" y2="96.3"/>
	<rect x="134.1" y="55.1" class="st0" width="16.4" height="3.2"/>
	<rect x="134.1" y="64.6" class="st0" width="16.4" height="3.2"/>
	<rect x="134.1" y="74.1" class="st0" width="16.4" height="3.2"/>
	<circle class="st0" cx="142.3" cy="86.4" r="3.9"/>
</g>
<g>
	<g>
		<polyline class="st2" points="42.2,35 42.2,20.3 256.7,20.3 256.7,38.3 		"/>
		<g>
			<polygon class="st1" points="43.9,33 42.2,34.7 40.5,33 40.5,34.4 42.2,36.1 43.9,34.4 			"/>
		</g>
	</g>
</g>
<circle class="st0" cx="170.8" cy="86.4" r="6.1"/>
<g>
	<path class="st1" d="M172.1,87.3h-2.5l-0.6,1.6h-0.8l2.3-6h0.7l2.3,6h-0.8L172.1,87.3z M169.8,86.6h2.1l-1-2.8L169.8,86.6z"/>
</g>
<g>
	<polygon class="st0" points="272,38.3 272,87.3 256.8,96.3 233.5,96.3 233.5,47.2 248.7,38.3 	"/>
	<path class="st0" d="M233.5,47.2"/>
	<polyline class="st0" points="233.5,47.2 256.8,47.2 272,38.3 	"/>
	<line class="st0" x1="256.8" y1="47.2" x2="256.8" y2="96.3"/>
	<rect x="236.9" y="55.1" class="st0" width="16.4" height="3.2"/>
	<rect x="236.9" y="64.6" class="st0" width="16.4" height="3.2"/>
	<rect x="236.9" y="74.1" class="st0" width="16.4" height="3.2"/>
	<circle class="st0" cx="245.1" cy="86.4" r="3.9"/>
</g>
<circle class="st0" cx="273.6" cy="86.4" r="6.1"/>
<g>
	<path class="st1" d="M271.6,88.9v-6h2c0.7,0,1.1,0.1,1.5,0.4c0.3,0.3,0.5,0.7,0.5,1.2c0,0.3-0.1,0.5-0.2,0.7
		c-0.2,0.2-0.4,0.4-0.7,0.5c0.3,0.1,0.6,0.3,0.8,0.5c0.2,0.3,0.3,0.6,0.3,0.9c0,0.5-0.2,1-0.5,1.3s-0.8,0.5-1.5,0.5H271.6z
		 M272.4,85.4h1.2c0.3,0,0.6-0.1,0.8-0.3c0.2-0.2,0.3-0.4,0.3-0.7c0-0.3-0.1-0.6-0.3-0.7c-0.2-0.2-0.5-0.2-0.9-0.2h-1.2V85.4z
		 M272.4,86v2.2h1.3c0.4,0,0.7-0.1,0.9-0.3s0.3-0.5,0.3-0.8c0-0.7-0.4-1.1-1.2-1.1H272.4z"/>
</g>
<g>
	<polygon class="st0" points="110.5,10.9 110.5,33.1 90.1,33.1 90.1,4.6 104.2,4.6 	"/>
	<g>
		<circle class="st0" cx="92.4" cy="18.9" r="7.9"/>
		<circle class="st0" cx="93.4" cy="14.4" r="1"/>
		<circle class="st0" cx="91.9" cy="19.3" r="1"/>
		<circle class="st0" cx="88.4" cy="16.2" r="1"/>
		<circle class="st0" cx="97.1" cy="18.3" r="1"/>
		<circle class="st0" cx="94.6" cy="23.1" r="1"/>
		<circle class="st0" cx="89.1" cy="23.1" r="1"/>
	</g>
	<line class="st0" x1="107.4" y1="12.6" x2="97.2" y2="12.6"/>
	<line class="st0" x1="107.4" y1="17.1" x2="100.1" y2="17.1"/>
	<line class="st0" x1="107.4" y1="21.6" x2="99.9" y2="21.6"/>
	<line class="st0" x1="107.4" y1="26.1" x2="95.6" y2="26.1"/>
</g>
<circle class="st0" cx="90.1" cy="4.7" r="4.5"/>
<g>
	<path class="st1" d="M88.7,6.5V2.1h1.4c0.5,0,0.8,0.1,1.1,0.3c0.2,0.2,0.4,0.5,0.4,0.9c0,0.2-0.1,0.4-0.2,0.5
		c-0.1,0.2-0.3,0.3-0.5,0.4c0.2,0.1,0.4,0.2,0.6,0.4c0.1,0.2,0.2,0.4,0.2,0.7c0,0.4-0.1,0.7-0.4,0.9s-0.6,0.3-1.1,0.3H88.7z M89.3,4
		h0.9c0.3,0,0.5-0.1,0.6-0.2C90.9,3.7,91,3.5,91,3.3c0-0.2-0.1-0.4-0.2-0.5c-0.1-0.1-0.4-0.2-0.6-0.2h-0.9V4z M89.3,4.5v1.6h1
		c0.3,0,0.5-0.1,0.6-0.2s0.2-0.3,0.2-0.6c0-0.5-0.3-0.8-0.9-0.8H89.3z"/>
</g>
<g>
	<g>
		<line class="st2" x1="156.5" y1="37.7" x2="156.5" y2="24.2"/>
		<g>
			<polygon class="st1" points="158.2,26.2 156.5,24.5 154.8,26.2 154.8,24.8 156.5,23.1 158.2,24.8 			"/>
		</g>
	</g>
</g>
</svg>
