<?xml version="1.0" encoding="utf-8"?>
<!-- Generator: Adobe Illustrator 26.0.3, SVG Export Plug-In . SVG Version: 6.00 Build 0)  -->
<svg version="1.1" id="Calque_1" xmlns="http://www.w3.org/2000/svg" xmlns:xlink="http://www.w3.org/1999/xlink" x="0px" y="0px"
	 viewBox="0 0 15.3 15.3" style="enable-background:new 0 0 15.3 15.3;" xml:space="preserve">
<style type="text/css">
	.st0{fill:#282E42;}
	.st1{fill:#FFFFFF;}
</style>
<circle class="st0" cx="7.6" cy="7.6" r="7.6"/>
<g>
	<path class="st0" d="M5.8,8c0-1.3,0-2.5,0-3.8c0-0.4,0.2-0.8,0.6-0.9c0.2,0,0.4,0,0.7,0c0.1-0.3,0.3-0.6,0.7-0.7
		c0.4,0,0.7,0.2,0.9,0.5c0.8-0.3,1.3,0,1.4,1c0.1,0,0.1,0,0.2,0c0.6-0.1,1.1,0.2,1.1,0.9c0,1.5,0,3,0,4.6c0,0.8-0.3,1.6-1,2.1
		c-0.4,0.3-0.8,0.5-1.3,0.6c-0.7,0.1-1.3,0.1-2-0.1c-0.7-0.2-1.2-0.6-1.6-1.2C5,10.2,4.5,9.3,3.9,8.4C3.7,8,3.9,7.5,4.2,7.3
		C4.6,7,5.1,7.1,5.4,7.5C5.5,7.6,5.7,7.8,5.8,8z M10.9,7.4C10.9,7.4,10.9,7.4,10.9,7.4c0-0.1,0-0.2,0-0.3c0-0.7,0-1.3,0-2
		c0-0.4-0.2-0.6-0.5-0.5c-0.3,0.1-0.3,0.3-0.3,0.5c0,0.6,0,1.2,0,1.8c0,0.1,0,0.2,0,0.2c0,0.1-0.1,0.2-0.2,0.2
		C9.8,7.3,9.7,7.2,9.7,7.2c0,0,0-0.1,0-0.2c0-0.9,0-1.8,0-2.7c0-0.1,0-0.3,0-0.4c0-0.2-0.2-0.3-0.4-0.3C9,3.6,8.8,3.7,8.8,4
		c0,0.9,0,1.9,0,2.8c0,0.1,0,0.2,0,0.2c0,0.1-0.1,0.1-0.2,0.1C8.5,7.2,8.4,7.1,8.4,7c0-0.1,0-0.2,0-0.2c0-1,0-2,0-3
		c0-0.1,0-0.1,0-0.2c0-0.3-0.2-0.4-0.4-0.4c-0.3,0-0.4,0.2-0.4,0.5c0,1.1,0,2.2,0,3.3c0,0.2,0,0.3-0.2,0.3C7.1,7.2,7.1,7,7.1,6.9
		c0-0.1,0-0.1,0-0.2c0-0.8,0-1.6,0-2.4c0-0.3-0.3-0.5-0.6-0.4C6.3,3.9,6.3,4.1,6.3,4.3c0,1.4,0,2.8,0,4.2c0,0.1-0.1,0.2-0.1,0.3
		C6,8.8,5.9,8.8,5.8,8.7C5.6,8.4,5.3,8.1,5.1,7.8C4.9,7.5,4.6,7.5,4.4,7.6C4.3,7.8,4.2,8,4.4,8.3C4.8,9,5.2,9.7,5.6,10.4
		c0.3,0.5,0.7,1,1.2,1.3c0.9,0.4,1.9,0.5,2.8,0.1c0.9-0.4,1.3-1.2,1.3-2.1C11,8.9,10.9,8.2,10.9,7.4z"/>
	<path class="st1" d="M10.9,7.4c0,0.7,0,1.5,0,2.2c0,0.9-0.4,1.8-1.3,2.1c-0.9,0.4-1.9,0.3-2.8-0.1c-0.6-0.3-0.9-0.8-1.2-1.3
		C5.2,9.7,4.8,9,4.4,8.3C4.2,8,4.3,7.8,4.4,7.6c0.2-0.1,0.5-0.1,0.6,0.1c0.2,0.3,0.5,0.6,0.7,0.9C5.9,8.8,6,8.8,6.1,8.8
		c0-0.1,0.1-0.2,0.1-0.3c0-1.4,0-2.8,0-4.2c0-0.2,0.1-0.4,0.3-0.5c0.3-0.1,0.6,0.1,0.6,0.4c0,0.8,0,1.6,0,2.4c0,0.1,0,0.1,0,0.2
		c0,0.2,0,0.3,0.2,0.3c0.2,0,0.2-0.2,0.2-0.3c0-1.1,0-2.2,0-3.3c0-0.3,0.2-0.5,0.4-0.5c0.2,0,0.4,0.2,0.4,0.4c0,0.1,0,0.1,0,0.2
		c0,1,0,2,0,3c0,0.1,0,0.2,0,0.2c0,0.1,0.1,0.1,0.2,0.1c0.1,0,0.2-0.1,0.2-0.1c0-0.1,0-0.2,0-0.2c0-0.9,0-1.9,0-2.8
		c0-0.3,0.1-0.5,0.4-0.4c0.2,0,0.3,0.1,0.4,0.3c0,0.1,0,0.3,0,0.4c0,0.9,0,1.8,0,2.7c0,0.1,0,0.1,0,0.2c0.1,0.1,0.1,0.1,0.2,0.2
		c0.1-0.1,0.2-0.1,0.2-0.2c0-0.1,0-0.2,0-0.2c0-0.6,0-1.2,0-1.8c0-0.2,0-0.4,0.3-0.5c0.3-0.1,0.5,0.1,0.5,0.5c0,0.7,0,1.3,0,2
		C10.9,7.2,10.9,7.3,10.9,7.4C10.9,7.4,10.9,7.4,10.9,7.4z"/>
</g>
</svg>
