<svg id="f4ad36a4-a5b9-42e9-8ef7-336de3d1816b" data-name="Calque 1" xmlns="http://www.w3.org/2000/svg" viewBox="0 0 20.46 20.46"><g id="ada00d30-4b54-47d1-901a-e2c57aa697a8" data-name="Groupe 64"><g id="f7ec7129-06b6-4362-b76f-e2fc36672e56" data-name="Tracé 2557"><path d="M17.07,19.69.71,3.33A1.72,1.72,0,0,1,.33,1.42,1.72,1.72,0,0,1,1.94.34L18.39.25A1.76,1.76,0,0,1,20.15,2l-.09,16.45a1.75,1.75,0,0,1-3,1.23Z" transform="translate(0.06 0)" style="fill:#fff"/><path d="M19.46.94A1.5,1.5,0,0,0,18.39.5L1.94.59a1.46,1.46,0,0,0-1.38.93A1.46,1.46,0,0,0,.88,3.15L17.25,19.51a1.5,1.5,0,0,0,2.56-1.05L19.9,2A1.5,1.5,0,0,0,19.46.94m.35-.35A2,2,0,0,1,20.4,2l-.09,16.45a2,2,0,0,1-3.42,1.41L.53,3.5A2,2,0,0,1,1.93.09L18.39,0A2,2,0,0,1,19.81.59Z" transform="translate(0.06 0)" style="fill:#282e42"/></g></g><rect x="10.17" y="6.87" width="6.3" height="1.39" style="fill:#282e42"/></svg>