<?xml version="1.0" encoding="utf-8"?>
<!-- Generator: Adobe Illustrator 26.0.3, SVG Export Plug-In . SVG Version: 6.00 Build 0)  -->
<svg version="1.1" id="Calque_1" xmlns="http://www.w3.org/2000/svg" xmlns:xlink="http://www.w3.org/1999/xlink" x="0px" y="0px"
	 viewBox="0 0 29.8 35.9" style="enable-background:new 0 0 29.8 35.9;" xml:space="preserve">
<style type="text/css">
	.st0{fill:none;stroke:#282E42;stroke-miterlimit:10;}
	.st1{fill:#FFFFFF;stroke:#282E42;stroke-miterlimit:10;}
	.st2{fill:#282E42;stroke:#282E42;stroke-width:0.5;stroke-miterlimit:10;}
</style>
<g>
	<path class="st0" d="M10.9,27.2h2.8H19h5.1l0-0.1l1.4-2.5l1.5-2.7l0.2-0.4l1.3-2.3l0.8-1.5c0.5-0.9-0.1-2-1.2-2H25h-5.2h-5.2H9.4
		H6.7"/>
	<polyline class="st0" points="23.5,31.3 12.4,31.3 10.4,25.6 5.3,12.5 0.4,12.6 	"/>
	<circle class="st0" cx="13" cy="33.4" r="2.1"/>
	<circle class="st0" cx="23.5" cy="33.4" r="2.1"/>
	<polyline class="st0" points="13.7,27.2 12.8,24.6 11.7,21.9 10.7,19.2 9.4,15.8 	"/>
	<polyline class="st0" points="18.2,27.4 17.5,24.8 16.9,22 16.2,19.1 15.4,15.6 	"/>
	<polyline class="st0" points="21.4,27.5 21.6,24.8 21.9,22 22.2,19.1 22.6,15.4 	"/>
	<polyline class="st0" points="7.9,19.2 10.7,19.2 15.9,19.2 21.1,19.2 26.3,19.2 28.5,19.2 	"/>
	<polyline class="st0" points="8.9,21.9 11.7,21.9 16.9,21.9 22.2,21.9 27,21.9 	"/>
	<polyline class="st0" points="25.5,24.6 23.2,24.6 18,24.6 12.8,24.6 10,24.6 	"/>
</g>
<circle class="st1" cx="7.6" cy="25.5" r="7.1"/>
<polygon class="st1" points="23.1,11.6 12.4,11.6 12.4,13 23.1,13 "/>
<path class="st1" d="M22.1,5.1l-3.7,4.7c-0.2,0.3-0.6,0.3-0.8,0l-3.7-4.7c-0.1-0.2,0-0.5,0.2-0.5h2.1V0.4h3.3v4.3h2.4
	C22.1,4.6,22.2,4.9,22.1,5.1z"/>
<g>
	<g>
		<path class="st2" d="M9.1,26.8h1.1v0.5H9.1v1.8H8.5v-1.8H5v-0.3l3.4-5.1h0.7V26.8z M5.8,26.8h2.7v-4.2L8.2,23L5.8,26.8z"/>
	</g>
</g>
</svg>
