<svg id="ba3ce004-d6c6-4852-943b-6ff4b2ebee77" data-name="Calque 1" xmlns="http://www.w3.org/2000/svg" viewBox="0 0 134.59 43.97"><rect x="98.53" y="3.54" width="31.68" height="36.89" rx="2.9" transform="translate(-1.53 33.44) rotate(-16.53)" style="fill:none;stroke:#282e42;stroke-miterlimit:10"/><rect x="99.5" y="5.21" width="28.92" height="30.82" rx="2.53" transform="translate(-1.16 33.27) rotate(-16.53)" style="fill:none;stroke:#282e42;stroke-miterlimit:10"/><ellipse cx="118.96" cy="37.46" rx="1.16" ry="1.1" transform="translate(-5.74 35.38) rotate(-16.53)" style="fill:none;stroke:#282e42;stroke-miterlimit:10"/><path d="M84.16,12.09a5.24,5.24,0,0,1,1.73-2.54,4.44,4.44,0,0,1,1.21-.7,5.07,5.07,0,0,1,4.35.42" transform="translate(0 0)" style="fill:none;stroke:#282e42;stroke-miterlimit:10"/><path d="M85.37,12.74l0-.11a3.8,3.8,0,0,1,1-1.65,3.41,3.41,0,0,1,4.14-.35" transform="translate(0 0)" style="fill:none;stroke:#282e42;stroke-miterlimit:10"/><path d="M86.8,13.24a2.16,2.16,0,0,1,1.47-1.48A2.22,2.22,0,0,1,90,12" transform="translate(0 0)" style="fill:none;stroke:#282e42;stroke-miterlimit:10"/><circle cx="88.91" cy="13.85" r="0.51" transform="translate(13.47 62.9) rotate(-41.88)" style="fill:none;stroke:#282e42;stroke-miterlimit:10"/><path d="M10.37,3H49.54a2.83,2.83,0,0,1,2.83,2.83v24a0,0,0,0,1,0,0H7.54a0,0,0,0,1,0,0v-24A2.83,2.83,0,0,1,10.37,3Z" style="fill:none;stroke:#282e42;stroke-miterlimit:10"/><path d="M7.54,29.91.92,39.36c-.9,1.28-.26,3.47,1,3.47H58.05c1.26,0,1.89-2.2,1-3.47l-6.67-9.45" transform="translate(0 0)" style="fill:none;stroke:#282e42;stroke-miterlimit:10"/><path d="M35.18,37.67l1.54,2.19c.21.3.07.81-.23.81h-13c-.29,0-.44-.51-.23-.81l1.54-2.19Z" transform="translate(0 0)" style="fill:none;stroke:#282e42;stroke-miterlimit:10"/><path d="M12.61,4.57H47.3a2.51,2.51,0,0,1,2.51,2.51v21.3a0,0,0,0,1,0,0H10.1a0,0,0,0,1,0,0V7.08A2.51,2.51,0,0,1,12.61,4.57Z" style="fill:none;stroke:#282e42;stroke-miterlimit:10"/><rect x="55.28" y="3.8" width="21.04" height="37.82" rx="2.83" transform="translate(10.41 -19.44) rotate(18.23)" style="fill:#fff;stroke:#282e42;stroke-miterlimit:10"/><rect x="57.46" y="5.48" width="17.37" height="32.41" rx="2.39" transform="translate(10.1 -19.6) rotate(18.23)" style="fill:#fff;stroke:#282e42;stroke-miterlimit:10"/><circle cx="59.72" cy="38.54" r="0.59" style="fill:#fff;stroke:#282e42;stroke-miterlimit:10"/><path d="M103.87,34.66l-1.53-12.17a4.57,4.57,0,0,0-4.07-4.56L80.08,16a4.57,4.57,0,0,0-4.6,2.58,4.49,4.49,0,0,0-.26.54L71,31.15A3.82,3.82,0,0,0,73.33,36l1.26.44a3.83,3.83,0,0,0,4.85-2.33l1.48-4.22,13.86,1.48.55,4.36A3.81,3.81,0,0,0,99.57,39l1-.13A3.81,3.81,0,0,0,103.87,34.66Z" transform="translate(0 0)" style="fill:#fff;stroke:#282e42;stroke-miterlimit:10;stroke-width:0.5px"/><path d="M99.34,39.3a4.06,4.06,0,0,1-4.26-3.54l-.53-4.17L81.09,30.16l-1.42,4a4.07,4.07,0,0,1-5.16,2.49l-1.26-.45a4.06,4.06,0,0,1-2.49-5.16L75,19a3.43,3.43,0,0,1,.27-.58,4.82,4.82,0,0,1,4.85-2.7l18.18,1.93a4.82,4.82,0,0,1,4.3,4.81l1.53,12.14a4.06,4.06,0,0,1-3.52,4.52l-1,.13ZM80.75,29.62,95,31.14l.57,4.56a3.56,3.56,0,0,0,4,3.08l1-.13a3.55,3.55,0,0,0,3.08-4l-1.53-12.16a4.33,4.33,0,0,0-3.85-4.35L80.05,16.24a4.33,4.33,0,0,0-4.34,2.44,3.08,3.08,0,0,0-.25.52l-4.22,12a3.55,3.55,0,0,0,2.17,4.53l1.26.44A3.55,3.55,0,0,0,79.2,34Z" transform="translate(0 0)" style="fill:#282e42;stroke:#282e42;stroke-miterlimit:10;stroke-width:0.5px"/><circle cx="93.77" cy="31.03" r="2.12" style="fill:#fff;stroke:#282e42;stroke-miterlimit:10;stroke-width:0.5px"/><path d="M93.92,33.39h-.4a2.37,2.37,0,1,1,2.61-2.11h0A2.38,2.38,0,0,1,93.92,33.39Zm-.27-4.23a1.87,1.87,0,1,0,2,2.07h0A1.87,1.87,0,0,0,94,29.17Z" transform="translate(0 0)" style="fill:#282e42;stroke:#282e42;stroke-miterlimit:10;stroke-width:0.5px"/><circle cx="81.93" cy="29.77" r="2.12" style="fill:#fff;stroke:#282e42;stroke-miterlimit:10;stroke-width:0.5px"/><path d="M82.08,32.13a1.79,1.79,0,0,1-.4,0A2.37,2.37,0,1,1,84.29,30h0A2.38,2.38,0,0,1,82.08,32.13Zm-.27-4.23a1.87,1.87,0,1,0,2,2.06h0a1.87,1.87,0,0,0-1.66-2.05A1.71,1.71,0,0,0,81.81,27.9Z" transform="translate(0 0)" style="fill:#282e42;stroke:#282e42;stroke-miterlimit:10;stroke-width:0.5px"/><path d="M80.32,23.05l-1.47-.16L79,21.31l-1.58-.17.15-1.47,1.59.17.17-1.58,1.46.15L80.64,20l1.59.16-.16,1.47-1.58-.17Zm-1.19-.38,1,.1.17-1.58,1.58.17.1-1-1.58-.17.17-1.59-1-.1-.17,1.58L77.82,20l-.11,1,1.59.17Z" transform="translate(0 0)" style="fill:#282e42;stroke:#282e42;stroke-miterlimit:10;stroke-width:0.5px"/><circle cx="97.7" cy="20.62" r="0.62" style="fill:#fff;stroke:#282e42;stroke-miterlimit:10;stroke-width:0.5px"/><path d="M97.74,21.37h-.12A.75.75,0,0,1,97.23,20a.76.76,0,0,1,.55-.16.75.75,0,0,1,.66.83.73.73,0,0,1-.27.5A.74.74,0,0,1,97.74,21.37Zm-.08-1.25a.49.49,0,0,0-.28.11.48.48,0,0,0-.18.33.49.49,0,0,0,.44.55A.48.48,0,0,0,98,21a.52.52,0,0,0,.18-.34.5.5,0,0,0-.44-.55Z" transform="translate(0 0)" style="fill:#282e42;stroke:#282e42;stroke-miterlimit:10;stroke-width:0.5px"/><circle cx="97.26" cy="24.73" r="0.62" style="fill:#fff;stroke:#282e42;stroke-miterlimit:10;stroke-width:0.5px"/><path d="M97.31,25.47a.29.29,0,0,1-.13,0,.78.78,0,0,1-.51-.27.79.79,0,0,1-.16-.55.75.75,0,0,1,.28-.51.76.76,0,0,1,.55-.16.73.73,0,0,1,.5.27.71.71,0,0,1,.16.55.74.74,0,0,1-.27.51A.73.73,0,0,1,97.31,25.47Zm-.08-1.24a.46.46,0,0,0-.29.11.52.52,0,0,0-.18.33.54.54,0,0,0,.11.37.48.48,0,0,0,.34.18.44.44,0,0,0,.36-.11.49.49,0,0,0,.19-.33.54.54,0,0,0-.11-.37.52.52,0,0,0-.34-.18A.22.22,0,0,0,97.23,24.23Z" transform="translate(0 0)" style="fill:#282e42;stroke:#282e42;stroke-miterlimit:10;stroke-width:0.5px"/><circle cx="99.22" cy="22.86" r="0.62" style="fill:#fff;stroke:#282e42;stroke-miterlimit:10;stroke-width:0.5px"/><path d="M99.27,23.61h-.13a.75.75,0,0,1-.39-1.33.76.76,0,0,1,.55-.16.71.71,0,0,1,.5.28.72.72,0,0,1,.16.55h0a.76.76,0,0,1-.27.5A.74.74,0,0,1,99.27,23.61Zm-.08-1.25a.46.46,0,0,0-.29.11.48.48,0,0,0-.18.33.5.5,0,0,0,.44.55.48.48,0,0,0,.55-.44h0a.5.5,0,0,0-.1-.37.52.52,0,0,0-.34-.18Z" transform="translate(0 0)" style="fill:#282e42;stroke:#282e42;stroke-miterlimit:10;stroke-width:0.5px"/><circle cx="95.73" cy="22.48" r="0.62" style="fill:#fff;stroke:#282e42;stroke-miterlimit:10;stroke-width:0.5px"/><path d="M95.77,23.23h-.12a.78.78,0,0,1-.51-.27.79.79,0,0,1-.16-.55.75.75,0,0,1,.28-.51.76.76,0,0,1,.55-.16.78.78,0,0,1,.5.27.73.73,0,0,1,.16.55h0a.78.78,0,0,1-.27.51A.76.76,0,0,1,95.77,23.23ZM95.69,22a.43.43,0,0,0-.28.11.48.48,0,0,0-.18.33.47.47,0,0,0,.11.37.48.48,0,0,0,.33.18.45.45,0,0,0,.37-.11.48.48,0,0,0,.18-.33h0a.48.48,0,0,0-.1-.37.52.52,0,0,0-.34-.18Z" transform="translate(0 0)" style="fill:#282e42;stroke:#282e42;stroke-miterlimit:10;stroke-width:0.5px"/></svg>