<?xml version="1.0" encoding="utf-8"?>
<!-- Generator: Adobe Illustrator 26.0.3, SVG Export Plug-In . SVG Version: 6.00 Build 0)  -->
<svg version="1.1" id="Calque_1" xmlns="http://www.w3.org/2000/svg" xmlns:xlink="http://www.w3.org/1999/xlink" x="0px" y="0px"
	 viewBox="0 0 175.1 59" style="enable-background:new 0 0 175.1 59;" xml:space="preserve">
<style type="text/css">
	.st0{fill:none;stroke:#282E42;stroke-miterlimit:10;}
	.st1{fill:#282E42;}
	.st2{fill:#FFFFFF;stroke:#282E42;stroke-miterlimit:10;}
	.st3{enable-background:new    ;}
	.st4{fill:none;}
</style>
<g>
	<g>
		<line class="st0" x1="115.5" y1="40.3" x2="86.8" y2="40.3"/>
		<g>
			<polygon class="st1" points="113.5,38.7 115.2,40.3 113.5,42 115,42 116.7,40.3 115,38.7 			"/>
		</g>
	</g>
</g>
<g>
	<g>
		<line class="st0" x1="87.6" y1="49.1" x2="116.3" y2="49.1"/>
		<g>
			<polygon class="st1" points="89.6,50.8 87.9,49.1 89.6,47.4 88.1,47.4 86.4,49.1 88.1,50.8 			"/>
		</g>
	</g>
</g>
<g>
	<g>
		<polygon class="st2" points="107.6,14 107.6,30.3 92.7,30.3 92.7,9.4 103,9.4 		"/>
		<g>
			<circle class="st2" cx="94.3" cy="19.8" r="5.8"/>
			<circle class="st0" cx="95.1" cy="16.6" r="0.7"/>
			<circle class="st0" cx="94" cy="20.1" r="0.7"/>
			<circle class="st0" cx="91.4" cy="17.9" r="0.7"/>
			<circle class="st0" cx="97.8" cy="19.4" r="0.7"/>
			<circle class="st0" cx="96" cy="22.9" r="0.7"/>
			<circle class="st0" cx="92" cy="22.9" r="0.7"/>
		</g>
		<line class="st0" x1="105.4" y1="15.2" x2="97.9" y2="15.2"/>
		<line class="st0" x1="105.4" y1="18.5" x2="100" y2="18.5"/>
		<line class="st0" x1="105.4" y1="21.8" x2="99.9" y2="21.8"/>
		<line class="st0" x1="105.4" y1="25.1" x2="96.7" y2="25.1"/>
	</g>
	<g>
		<circle class="st2" cx="92.7" cy="9.4" r="3.3"/>
		<g class="st3">
			<path class="st1" d="M93.4,9.9h-1.4l-0.3,0.8h-0.4l1.2-3.2h0.4l1.2,3.2h-0.4L93.4,9.9z M92.2,9.6h1.1l-0.6-1.5L92.2,9.6z"/>
		</g>
	</g>
</g>
<g>
	<g>
		<g>
			<path class="st2" d="M67.1,38.2h-56v-30c0-2,1.6-3.5,3.5-3.5h48.9c2,0,3.5,1.6,3.5,3.5L67.1,38.2L67.1,38.2z"/>
			<path class="st2" d="M11.2,38.2L2.9,50c-1.1,1.6-0.3,4.3,1.2,4.3h70.1c1.6,0,2.4-2.7,1.2-4.3l-8.3-11.8"/>
			<path class="st2" d="M45.7,47.8l1.9,2.7c0.3,0.4,0.1,1-0.3,1H31.1c-0.4,0-0.5-0.6-0.3-1l1.9-2.7H45.7z"/>
			<path class="st2" d="M63.9,36.2H14.4V9.6c0-1.7,1.4-3.1,3.1-3.1h43.3c1.7,0,3.1,1.4,3.1,3.1C63.9,9.6,63.9,36.2,63.9,36.2z"/>
		</g>
		<g>
			<g class="st3">
				<path class="st1" d="M40.5,28.5h-2.5l-0.6,1.6h-0.8l2.3-6h0.7l2.3,6H41L40.5,28.5z M38.2,27.8h2.1l-1-2.8L38.2,27.8z"/>
			</g>
			<circle class="st0" cx="39.2" cy="27.6" r="6.1"/>
		</g>
		<rect x="28.5" y="9.7" class="st4" width="24.5" height="9.1"/>
		<g class="st3">
			<path class="st1" d="M32,14.9c-1-0.3-1.7-0.6-2.1-1s-0.7-0.9-0.7-1.5c0-0.7,0.3-1.2,0.8-1.7s1.2-0.7,2.1-0.7
				c0.6,0,1.1,0.1,1.6,0.3s0.8,0.5,1.1,0.9s0.4,0.8,0.4,1.3H34c0-0.5-0.2-0.9-0.5-1.2S32.7,11,32.1,11c-0.6,0-1,0.1-1.3,0.4
				c-0.3,0.2-0.5,0.6-0.5,1c0,0.3,0.1,0.6,0.4,0.9c0.3,0.2,0.8,0.5,1.5,0.7c0.7,0.2,1.3,0.4,1.7,0.7s0.7,0.5,0.9,0.8
				s0.3,0.7,0.3,1.1c0,0.7-0.3,1.2-0.8,1.7s-1.3,0.6-2.2,0.6c-0.6,0-1.1-0.1-1.6-0.3s-0.9-0.5-1.2-0.9s-0.4-0.8-0.4-1.3h1.1
				c0,0.5,0.2,0.9,0.6,1.2s0.9,0.4,1.5,0.4c0.6,0,1-0.1,1.4-0.4s0.5-0.6,0.5-1s-0.1-0.7-0.4-1S32.8,15.1,32,14.9z"/>
			<path class="st1" d="M36.4,10.7c0-0.2,0.1-0.3,0.2-0.4s0.3-0.2,0.5-0.2s0.4,0.1,0.5,0.2s0.2,0.3,0.2,0.4s-0.1,0.3-0.2,0.4
				s-0.3,0.2-0.5,0.2s-0.4-0.1-0.5-0.2S36.4,10.8,36.4,10.7z M37.6,18.7h-1.1v-6.3h1.1V18.7z"/>
			<path class="st1" d="M40.8,10.8v1.5H42v0.8h-1.2v3.9c0,0.3,0.1,0.4,0.2,0.6s0.3,0.2,0.5,0.2c0.1,0,0.3,0,0.5-0.1v0.9
				c-0.3,0.1-0.6,0.1-0.8,0.1c-0.5,0-0.8-0.1-1.1-0.4s-0.4-0.7-0.4-1.2v-3.9h-1.2v-0.8h1.2v-1.5H40.8z"/>
			<path class="st1" d="M45.9,18.8c-0.9,0-1.6-0.3-2.1-0.8S43,16.6,43,15.7v-0.2c0-0.6,0.1-1.2,0.4-1.7s0.6-0.9,1-1.2
				s0.9-0.4,1.4-0.4c0.8,0,1.5,0.3,1.9,0.8s0.7,1.3,0.7,2.3v0.5h-4.3c0,0.6,0.2,1.1,0.5,1.5s0.8,0.6,1.3,0.6c0.4,0,0.7-0.1,1-0.2
				s0.5-0.4,0.7-0.6l0.7,0.5C47.7,18.4,46.9,18.8,45.9,18.8z M45.7,13.1c-0.4,0-0.8,0.2-1.1,0.5s-0.5,0.8-0.6,1.3h3.2v-0.1
				c0-0.6-0.2-1-0.4-1.3S46.2,13.1,45.7,13.1z"/>
		</g>
	</g>
	<g>
		<polygon class="st0" points="166.7,0.5 166.7,49.5 151.5,58.5 128.2,58.5 128.2,9.4 143.4,0.5 		"/>
		<path class="st0" d="M128.2,9.4"/>
		<polyline class="st0" points="128.2,9.4 151.5,9.4 166.7,0.5 		"/>
		<line class="st0" x1="151.5" y1="9.4" x2="151.5" y2="58.5"/>
		<rect x="131.6" y="17.4" class="st0" width="16.4" height="3.2"/>
		<rect x="131.6" y="26.8" class="st0" width="16.4" height="3.2"/>
		<rect x="131.6" y="36.3" class="st0" width="16.4" height="3.2"/>
		<circle class="st0" cx="139.8" cy="48.6" r="3.9"/>
	</g>
	<g>
		<circle class="st2" cx="168.5" cy="46.6" r="6.1"/>
		<g class="st3">
			<path class="st1" d="M169.7,47.5h-2.5l-0.6,1.6h-0.8l2.3-6h0.7l2.3,6h-0.8L169.7,47.5z M167.4,46.8h2.1l-1-2.8L167.4,46.8z"/>
		</g>
	</g>
</g>
</svg>
