<?xml version="1.0" encoding="utf-8"?>
<!-- Generator: Adobe Illustrator 26.0.3, SVG Export Plug-In . SVG Version: 6.00 Build 0)  -->
<svg version="1.1" id="Calque_1" xmlns="http://www.w3.org/2000/svg" xmlns:xlink="http://www.w3.org/1999/xlink" x="0px" y="0px"
	 viewBox="0 0 510.6 540" style="enable-background:new 0 0 510.6 540;" xml:space="preserve">
<style type="text/css">
	.st0{fill:none;stroke:#282E42;stroke-width:28;stroke-miterlimit:10;}
</style>
<path class="st0" d="M495.2,180.6c3.3,8.6,0.5,18.3-6.3,24.6l-43.3,39.4c1.1,8.3,1.7,16.8,1.7,25.4c0,8.6-0.6,17.1-1.7,25.4
	l43.3,39.4c6.8,6.3,9.6,16,6.3,24.6c-4.4,11.9-9.7,23.4-15.7,34.3l-4.7,8.1c-6.6,11-14,21.4-22.1,31.3c-6,7.1-15.7,9.6-24.5,6.8
	l-55.7-17.8c-13.4,10.3-29.1,18.9-44,25.5L316,504.7c-2,9-9,15.4-18.2,17.8c-13.8,2.3-28,3.5-43.4,3.5c-13.6,0-27.8-1.2-41.6-3.5
	c-9.2-2.4-16.2-8.8-18.2-17.8l-12.5-57.1c-15.8-6.6-30.6-15.2-44-25.5l-55.7,17.8c-8.8,2.8-18.6,0.3-24.5-6.8
	c-8.1-9.9-15.5-20.3-22.1-31.3l-4.7-8.1c-6.1-10.9-11.4-22.4-15.8-34.3c-3.2-8.6-0.5-18.3,6.4-24.6L65,295.4
	c-1.1-8.3-1.7-16.8-1.7-25.4s0.6-17.1,1.7-25.4l-43.3-39.4c-6.9-6.3-9.6-15.9-6.4-24.6c4.4-11.9,9.7-23.4,15.8-34.3l4.7-8.1
	c6.6-11,14-21.4,22.1-31.2c5.9-7.1,15.7-9.6,24.5-6.8l55.7,17.8c13.4-10.3,28.2-18.9,44-25.5l12.5-57.1c2-9.1,9-16.3,18.2-17.8
	c13.8-2.4,28-3.6,42.5-3.6c14.5,0,28.7,1.2,42.5,3.5C307,19,314,26.2,316,35.3l12.5,57.1c14.9,6.5,30.6,15.1,44,25.5l55.7-17.8
	c8.8-2.8,18.5-0.3,24.5,6.8c8.1,9.9,15.5,20.2,22.1,31.2l4.7,8.1C485.5,157.2,490.8,168.7,495.2,180.6L495.2,180.6z M255.3,350
	c44.2,0,80-35.8,80-80.9c0-43.3-35.8-80-80-80s-80,36.7-80,80C175.3,314.2,211.1,350,255.3,350z"/>
</svg>
