<?xml version="1.0" encoding="utf-8"?>
<!-- Generator: Adobe Illustrator 26.2.1, SVG Export Plug-In . SVG Version: 6.00 Build 0)  -->
<svg version="1.1" id="Calque_1" xmlns="http://www.w3.org/2000/svg" xmlns:xlink="http://www.w3.org/1999/xlink" x="0px" y="0px"
	 viewBox="0 0 329 329" style="enable-background:new 0 0 329 329;" xml:space="preserve">
<style type="text/css">
	.st0{fill:#282E42;}
</style>
<path class="st0" d="M277.6,41.1H133.7c-5.7,0-10.3,4.6-10.3,10.3v10.3H82.2V51.4C82.2,23,105.3,0,133.7,0h143.9
	C306,0,329,23,329,51.4v143.9c0,28.4-23,51.4-51.4,51.4h-10.3v-41.1h10.3c5.7,0,10.3-4.6,10.3-10.3V51.4
	C287.9,45.7,283.2,41.1,277.6,41.1z M0,123.4c0-22.7,18.4-41.1,41.1-41.1h164.5c22.7,0,41.1,18.4,41.1,41.1v164.5
	c0,22.7-18.4,41.1-41.1,41.1H41.1C18.4,329,0,310.6,0,287.9V123.4z M61.7,164.5h123.4c11.4,0,20.6-9.2,20.6-20.6
	s-9.2-20.6-20.6-20.6H61.7c-11.4,0-20.6,9.2-20.6,20.6S50.3,164.5,61.7,164.5z"/>
</svg>
